<svg xmlns="http://www.w3.org/2000/svg" viewBox="0 0 395.8 74.8" width="395" height="74" fill="none">
<path fill="currentColor" d="m262.3,41.6c-.7-6.8-3.6-12.7-8.2-16.8-3.7-3.3-8.5-5.3-14-6-9.4-1.2-18.5,1.5-24.9,7.2l7.8,8.7c3.8-3.4,9.7-5.1,15.6-4.3,3.1.4,5.8,1.5,7.7,3.2,2.6,2.3,4,5.7,4.3,9.2-.1,0-.1,0-.2,0-5.2-2.7-11.9-3.8-18-2.9-7.4,1.1-13.2,4.7-16.3,10.4-2.6,4.7-2.7,9.8-.3,14.2,3.6,6.5,11.5,9.8,17.8,10.1h1.3c7,0,13.7-3,18.8-8.3.5,2.3.9,4.9,1.3,7.6l11.6-1.4c-.8-6.5-2.1-13.4-5.4-19.3,1.1-3.6,1.5-7.6,1.1-11.5Zm-28,21.2c-3.4-.2-7.2-1.9-8.2-4.1-.1-.2-.7-1.2.3-2.9,1.8-3.2,6-4.7,10.4-4.7s5.9.6,8.3,1.9c1,.5,1.9,1.2,2.8,1.9-3.4,5.3-8.3,8.2-13.6,7.9Z"></path><path fill="currentColor" d="m56.9,44.3c2.7-4.9,2.8-10.2.2-14.8-3.1-5.6-10-9.7-17.2-10.1-10.2-.6-19.5,4.3-24.8,12.7-2.8-3.4-3.7-6.2-3.7-6.4l-5.7,1.6-5.7,1.5c.3.9,2.5,8.6,10.7,15.5-.3,2.4-.3,4.8,0,7.1.7,6.8,3.6,12.7,8.2,16.8,3.7,3.3,8.5,5.3,14,6,1.2.2,2.5.2,3.7.2,7.7,0,15.3-2.9,21-8l-7.8-8.7c-4.2,3.7-10,5.6-15.5,4.9-3.1-.4-5.8-1.5-7.7-3.2-2.5-2.2-3.8-5.3-4.2-8.6,4.5,1.5,9,2.2,12.5,2.4,13.6.9,19.5-4.3,22.1-8.9Zm-17.6-13.2c3.1.2,6.4,1.9,7.5,4,.4.8.6,2.3-.2,3.5-2.1,3-8.3,3.1-11,2.9-3.2-.2-7.3-.8-11.1-2.4,3-5.3,8.6-8.4,14.8-8Z"></path><path fill="currentColor" d="m287.7,35.8v-15.2c-.1,0-11.9.1-11.9.1l.5,52.5h11.7c.1-5-.3-16.6,4.9-24.8,6.9-11,14.2-15.6,22.3-17.1l-2.2-11.5c-11,2.1-18,6.5-25.3,16Z"></path><path fill="currentColor" d="m372.3,60.5c-1.7,1.3-7.6,5-14.1-1.7-5.6-5.8-9.9-11.8-12.8-16.5.4-.5.9-1,1.3-1.5,7.2-7.2,17.8-9.8,17.9-9.9l-2.7-11.2c-.6,0-13.9,3.4-23.5,13-.7.7-1.4,1.4-2,2.1V0c.1,0-11.6,0-11.6,0v69c-.2,2.5-.1,4.1-.1,4.3h11.7c0,0,0-3.8,0-3.8.1-3.5.7-9.3,2.6-15.3,2.9,4.1,6.5,8.6,10.8,13,5.4,5.5,11.1,7.4,16.2,7.4s10.9-2.5,13.7-4.8l-7.4-9.2Z"></path><path fill="currentColor" d="m122.8,19.3c-6.6,0-12.5,2.8-16.6,7.4-4.1-4.5-10-7.4-16.6-7.4-12.4,0-22.5,10.1-22.5,22.5v31.1h11.7v-31.1c0-5.9,4.8-10.8,10.8-10.8s10.8,4.8,10.8,10.8v31.1h11.7v-31.1c0-5.9,4.8-10.8,10.8-10.8s10.8,4.8,10.8,10.8v31.1h11.7v-31.1c0-12.4-10.2-22.5-22.6-22.5Z"></path><path fill="currentColor" d="m180.8,18.9c-5-.3-9.8.7-14.1,2.8V0h-11.7v32.5h0v18.4c0,6.4,2.5,12.4,7,17,4.5,4.5,10.6,7,17,7h0c7.7,0,15.1-3.2,20.4-8.8,5.3-5.7,8-13.1,7.5-20.9-.8-14.1-12.1-25.4-26.1-26.2Zm10.1,39c-3.1,3.3-7.3,5.1-11.9,5.1h0c-3.3,0-6.4-1.3-8.7-3.6-2.3-2.3-3.6-5.4-3.6-8.7v-14.6c3.3-3.8,8.2-5.9,13.3-5.6,8,.5,14.7,7.2,15.2,15.2.3,4.6-1.2,8.9-4.3,12.2Z"></path><g><path fill="currentColor" d="m375.9,2.1h-3.6V.1h9.5v2h-3.6v9.5h-2.4V2.1h.2Z"></path><path fill="currentColor" d="m395.8,0v11.7h-2.4v-7.4l-3.2,7h-1.4l-3.2-7v7.4h-2.2V0h2.4l4,8.2,3.6-8.2h2.4Z"></path></g>
</svg>
